<?xml version="1.0" standalone="no"?>
<!DOCTYPE svg PUBLIC "-//W3C//DTD SVG 20010904//EN"
 "http://www.w3.org/TR/2001/REC-SVG-20010904/DTD/svg10.dtd">
<svg version="1.0" xmlns="http://www.w3.org/2000/svg"
 width="508.000000pt" height="508.000000pt" viewBox="0 0 508.000000 508.000000"
 preserveAspectRatio="xMidYMid meet">
<metadata>
Created by potrace 1.14, written by Peter Selinger 2001-2017
</metadata>
<g transform="translate(0.000000,508.000000) scale(0.100000,-0.100000)"
fill="#000000" stroke="none">
<path d="M2358 5075 c-2 -2 -30 -6 -63 -9 -84 -7 -169 -20 -270 -40 -322 -64
-707 -242 -980 -453 -134 -104 -238 -200 -361 -334 -53 -58 -202 -254 -216
-285 -6 -13 -15 -24 -19 -24 -4 0 -11 -9 -14 -20 -3 -11 -12 -26 -18 -33 -7
-7 -21 -28 -31 -47 -157 -287 -247 -530 -301 -810 -3 -14 -7 -34 -9 -46 -2
-12 -7 -43 -10 -70 -4 -27 -10 -80 -15 -119 -9 -73 -7 -464 3 -525 3 -19 8
-57 12 -85 3 -27 8 -59 10 -70 2 -11 7 -33 10 -50 68 -381 260 -796 508 -1105
124 -153 222 -254 362 -370 126 -105 125 -103 162 -126 18 -10 32 -22 32 -26
0 -4 4 -8 9 -8 5 0 53 -28 106 -61 100 -63 313 -169 339 -169 8 0 16 -4 18 -8
4 -10 226 -84 318 -107 122 -30 131 -31 290 -56 91 -14 472 -20 555 -9 33 5
85 12 115 15 30 4 57 8 60 10 3 2 25 6 50 9 60 8 278 68 365 101 39 14 75 27
80 29 21 6 53 21 153 67 56 27 107 49 112 49 6 0 10 3 10 8 0 4 21 18 48 32
91 47 294 190 393 277 120 106 149 157 144 253 -3 77 -42 143 -106 182 -81 51
-200 41 -265 -20 -290 -277 -716 -485 -1094 -537 -132 -18 -371 -25 -485 -15
-472 42 -934 262 -1268 603 -45 46 -74 84 -70 90 23 40 91 150 119 192 29 46
325 520 482 775 35 58 84 135 108 172 24 36 44 71 44 77 0 6 3 11 8 11 4 0 12
9 17 20 16 31 147 244 155 250 5 4 54 85 70 115 17 32 53 85 56 82 2 -2 4
-203 5 -448 0 -244 5 -469 10 -499 6 -30 12 -68 15 -84 9 -49 62 -151 101
-195 21 -24 62 -54 101 -72 59 -29 72 -31 141 -27 105 6 175 41 266 132 76 76
107 121 316 458 74 120 153 248 176 285 23 38 46 75 50 83 16 31 236 381 242
384 3 2 6 -129 5 -292 0 -164 3 -313 7 -332 4 -19 11 -55 14 -80 4 -25 18 -79
32 -120 70 -207 178 -339 358 -440 81 -46 228 -78 341 -74 128 4 288 58 399
134 50 34 160 140 188 180 9 14 29 43 45 65 31 44 101 200 108 243 3 15 9 43
14 62 5 19 13 53 17 75 9 48 10 403 1 495 -11 105 -39 268 -65 365 -8 33 -16
68 -18 77 -7 36 -87 264 -96 273 -5 5 -9 15 -9 22 0 13 -93 205 -140 288 -171
306 -460 620 -750 818 -149 101 -163 109 -288 173 -101 52 -306 140 -347 149
-5 1 -17 4 -25 7 -70 24 -219 63 -275 72 -11 2 -33 6 -50 9 -16 3 -55 9 -85
13 -30 4 -66 9 -80 11 -32 6 -447 13 -452 8z m427 -470 c157 -22 292 -54 427
-101 131 -46 376 -164 386 -186 2 -5 8 -8 14 -8 6 0 26 -11 44 -25 18 -14 35
-25 38 -25 3 0 14 -6 23 -14 10 -8 53 -42 95 -76 83 -65 240 -218 298 -290 76
-94 162 -220 217 -320 52 -93 68 -127 118 -245 36 -83 90 -265 110 -370 19
-105 23 -135 31 -250 18 -251 7 -366 -49 -485 -29 -61 -141 -189 -155 -176 -3
3 -11 1 -19 -5 -19 -17 -113 -37 -148 -32 -80 11 -156 67 -195 143 -45 89 -51
152 -52 540 -1 307 -4 378 -19 445 -24 113 -62 188 -124 251 -72 73 -128 97
-231 98 -75 0 -88 -3 -158 -38 -99 -48 -235 -183 -306 -301 -14 -22 -28 -44
-32 -50 -5 -5 -54 -84 -110 -175 -145 -236 -258 -421 -277 -450 -9 -14 -20
-33 -26 -42 -55 -94 -135 -221 -136 -218 -1 3 -2 253 -3 555 -2 541 -5 595
-31 685 -44 154 -154 241 -296 235 -110 -4 -203 -72 -299 -218 -33 -51 -65
-97 -70 -104 -6 -7 -10 -14 -10 -17 0 -4 -286 -465 -355 -571 -18 -27 -38 -61
-45 -74 -7 -14 -17 -30 -22 -35 -11 -14 -666 -1067 -672 -1081 -6 -17 -29 22
-75 128 -23 56 -47 110 -52 119 -5 10 -9 27 -9 37 0 11 -4 22 -9 25 -5 3 -11
18 -14 33 -2 16 -15 66 -27 113 -12 47 -24 94 -25 105 -2 11 -6 34 -9 50 -3
17 -7 39 -9 50 -25 113 -26 488 -1 608 2 12 7 38 10 57 3 19 7 43 10 52 3 10
7 30 10 45 29 170 157 483 269 658 282 442 726 770 1215 896 47 12 94 23 105
25 11 2 31 5 45 9 36 8 86 15 155 21 33 3 61 7 63 9 5 5 345 -3 387 -10z"/>
</g>
</svg>
